<?xml version="1.0" encoding="utf-8"?>
<!-- Generator: Adobe Illustrator 23.0.3, SVG Export Plug-In . SVG Version: 6.00 Build 0)  -->
<svg version="1.1" id="Layer_1" xmlns="http://www.w3.org/2000/svg" xmlns:xlink="http://www.w3.org/1999/xlink" x="0px" y="0px"
	 viewBox="0 0 700 768" style="enable-background:new 0 0 700 768;" xml:space="preserve">
<style type="text/css">
	.st0{fill:none;}
	.st1{fill:#6C7EA6;}
</style>
<path class="st0" d="M669.88,768H700v-54.3C692.11,730.24,682.16,748.87,669.88,768z"/>
<g>
	<path class="st1" d="M701.08,303.08c-0.36-0.52-0.72-1.03-1.08-1.54v2.2C700.52,303.42,700.89,303.19,701.08,303.08z"/>
	<path class="st1" d="M700,639.58c-34.67-21.24-94.08-71.59-94.89-167.46c-0.98-107.45,83.73-161.55,94.89-168.39v-2.2
		c-52.22-75.04-132.74-85.56-161.39-86.81c-69.3-6.98-135.27,40.86-170.3,40.86c-35.14,0-89.38-39.71-146.72-38.57
		c-75.65,1.03-145.11,43.95-184.03,111.36C-38.88,461.06,14.61,656.08,88.3,768h581.59c12.27-19.13,22.23-37.76,30.12-54.3V639.58z"
		/>
	<path class="st1" d="M493.06,141.71c31.13-37.54,52.07-89.84,46.3-141.92c-44.69,1.72-98.89,29.87-130.87,67.3
		c-28.84,33.42-54.13,86.75-47.27,137.68C411,208.55,462.11,179.36,493.06,141.71z"/>
</g>
</svg>
